<?xml version="1.0" encoding="utf-8"?>
<svg version="1.1" xmlns:cc="http://creativecommons.org/ns#" xmlns:dc="http://purl.org/dc/elements/1.1/" xmlns:rdf="http://www.w3.org/1999/02/22-rdf-syntax-ns#" xmlns="http://www.w3.org/2000/svg" xmlns:xlink="http://www.w3.org/1999/xlink" x="0px" y="0px" viewBox="0 334 1024 100" xml:space="preserve">

 
 <g id="logo-group" transform="translate(-46.692 -35.139) scale(1.0912)">
  <path id="path239734" style="font-variant-ligatures:none" d="m277.39 361.07v45.864h3.3415v-45.864z" stroke-miterlimit="2" stroke-width="0" fill="#f0ead9"/>
  <path id="path239736" style="font-variant-ligatures:none" d="m305.82 361.07v45.864h29.746v-3.0139h-26.41v-42.85z" stroke-miterlimit="2" stroke-width="0" fill="#f0dac7"/>
  <path id="path239738" style="font-variant-ligatures:none" d="m353.31 361.07v45.864h29.746v-3.0139h-26.41v-42.85z" stroke-miterlimit="2" stroke-width="0" fill="#f0c9b4"/>
  <path id="path239740" style="font-variant-ligatures:none" d="m404.29 402.21c3.2105 3.407 7.7314 5.045 13.563 5.045 5.7658 0 10.287-1.638 13.563-5.045 3.2105-3.3415 4.8485-8.2555 4.8485-14.742v-26.4h-3.3415v26.274c0 5.6347-1.3104 9.8935-3.8657 12.645-2.6208 2.8174-6.2899 4.1933-11.138 4.1933-4.914 0-8.6486-1.3759-11.204-4.1933-2.6208-2.7518-3.8657-7.0106-3.8657-12.645v-26.27h-3.3415v26.405c0 6.4865 1.5725 11.4 4.783 14.742z" stroke-miterlimit="2" stroke-width="0" fill="#f0b9a2"/>
  <path id="path239744" style="font-variant-ligatures:none" d="m529.1 361.07v45.864h3.3415v-45.864z" stroke-miterlimit="2" stroke-width="0" fill="#f0997e"/>
  <path id="path239746" style="font-variant-ligatures:none" d="m593.51 361.07h-3.4726l-18.54 41.54-18.55-41.54h-3.6691l20.442 45.864h3.3415z" stroke-miterlimit="2" stroke-width="0" fill="#ef886b"/>
  <path id="path239748" style="font-variant-ligatures:none" d="m639.69 382.17h-29.681v2.9484h29.681zm0-21.097h-29.681v3.0139h29.681zm-29.681 42.85v3.0139h29.681v-3.0139z" stroke-miterlimit="2" stroke-width="0" fill="#ef7859"/>
  <path id="path239750" style="font-variant-ligatures:none" d="m660.23 406.41c0.52416 0.52416 1.1794 0.78624 1.9656 0.78624 0.72072 0 1.3759-0.26208 1.9001-0.78624 0.52416-0.52416 0.85176-1.2449 0.85176-2.0311 0-0.78624-0.3276-1.4414-0.85176-1.9656-0.52416-0.52416-1.1794-0.78624-1.9001-0.78624-0.78624 0-1.4414 0.26208-1.9656 0.78624-0.52416 0.52416-0.78624 1.1794-0.78624 1.9656 0 0.78624 0.26208 1.507 0.78624 2.0311z" stroke-miterlimit="2" stroke-width="0" fill="#ef6847"/>
  <path id="path239752" style="font-variant-ligatures:none" d="m704.74 361.07h-3.3415l-21.097 45.864h3.6036l19.132-42.195 19.197 42.195h3.6036z" stroke-miterlimit="2" stroke-width="0" fill="#ef5734"/>
  <path id="path239754" style="font-variant-ligatures:none" d="m743.26 361.07v45.864h3.3415v-45.864z" stroke-miterlimit="2" stroke-width="0" fill="#ef4722"/>
  <path id="icon" stroke-width=".29074" fill="#efa88f" d="m480.4 360.93c-0.28451 0.001-0.60457 0.008-0.71127 0.015s-0.31038 0.0247-0.45264 0.0391c-0.14225 0.0142-0.3823 0.0438-0.53346 0.0655-0.15114 0.0217-0.39119 0.0616-0.53345 0.0888-0.14226 0.027-0.41868 0.0888-0.61429 0.13692-0.1956 0.0483-0.46476 0.12075-0.59812 0.16085-0.13337 0.0403-0.35887 0.11412-0.50113 0.1644-0.14225 0.0503-0.37131 0.13676-0.50921 0.1922-0.13773 0.0555-0.32686 0.13498-0.4203 0.17669-0.0933 0.0419-0.30665 0.14452-0.47397 0.22842-0.16748 0.0839-0.41481 0.21516-0.54963 0.29179-0.13498 0.0765-0.34351 0.20158-0.46362 0.27772-0.11995 0.0763-0.31281 0.20385-0.42838 0.28371-0.11559 0.0797-0.29552 0.20934-0.39978 0.28806-0.10443 0.0787-0.2753 0.21322-0.37989 0.29889-0.10437 0.0858-0.28463 0.23986-0.40006 0.34221-0.11572 0.10263-3.0037 2.9784-6.4179 6.3909l-6.2074 6.2045-1.7863-1.7863-1.7863-1.786-0.01 2.7522c-0.005 1.5137-0.011 4.0161-0.0121 5.5608l-0.002 2.8089h11.146l-1.8427-1.843-1.843-1.843 6.1833-6.1807c4.406-4.4042 6.2426-6.2298 6.3894-6.351 0.11332-0.0936 0.29647-0.2344 0.40672-0.31282 0.11041-0.0784 0.30133-0.20319 0.42435-0.27723 0.12302-0.074 0.33284-0.18849 0.4662-0.25396 0.13337-0.0656 0.33349-0.15551 0.44455-0.19981 0.11122-0.0443 0.27126-0.10362 0.35564-0.13175 0.0845-0.0283 0.24087-0.0758 0.34756-0.10539 0.10669-0.0298 0.24862-0.0661 0.31523-0.081 0.0668-0.0149 0.19398-0.0404 0.28289-0.0567 0.0889-0.0163 0.2635-0.043 0.38797-0.0593 0.17927-0.0234 0.33706-0.0296 0.75978-0.0296 0.33688-0.00016 0.59602 0.007 0.70319 0.0207 0.0934 0.0113 0.26075 0.0356 0.37181 0.0537 0.11121 0.0179 0.28208 0.0509 0.37988 0.0731 0.0978 0.022 0.26883 0.0661 0.37989 0.0978 0.11122 0.0317 0.29665 0.0923 0.41222 0.1345 0.11558 0.0423 0.312 0.12189 0.43647 0.17685 0.12447 0.0551 0.31894 0.1505 0.4321 0.21225 0.11316 0.0618 0.28775 0.16376 0.38797 0.2268 0.10023 0.063 0.25865 0.17022 0.35192 0.23812 0.0934 0.0679 0.23892 0.18105 0.32331 0.25169 0.0845 0.0705 0.23068 0.19948 0.32493 0.28678 0.0943 0.0871 0.24879 0.24458 0.34334 0.34982 0.0947 0.10524 0.2239 0.25639 0.28727 0.33593 0.0634 0.0795 0.16682 0.21694 0.22971 0.30551 0.0629 0.0886 0.17442 0.26027 0.24781 0.38166 0.0734 0.12141 0.18768 0.32898 0.25412 0.46136 0.0663 0.13239 0.15697 0.32944 0.20158 0.43809 0.0446 0.10847 0.11753 0.3086 0.16198 0.44455 0.0445 0.13595 0.10281 0.33448 0.12965 0.44115 0.0268 0.10669 0.0668 0.29211 0.0889 0.41222 0.022 0.12011 0.0532 0.32008 0.0693 0.44455 0.0231 0.17879 0.0293 0.33671 0.0291 0.75169-0.00016 0.41027-0.007 0.57501-0.0294 0.75169-0.016 0.12447-0.0469 0.32444-0.0689 0.44455-0.0218 0.12011-0.0682 0.32735-0.10313 0.46071-0.0349 0.13337-0.097 0.34061-0.13806 0.46072-0.0411 0.12011-0.11089 0.30473-0.15519 0.41044-0.0444 0.10572-0.12479 0.28031-0.17878 0.38797-0.0538 0.10767-0.13111 0.25396-0.17152 0.32509-0.0406 0.0711-0.13417 0.22227-0.20789 0.33592-0.0739 0.11365-0.19043 0.28064-0.25897 0.37117-0.0685 0.0905-0.18994 0.24135-0.2698 0.33494-0.0799 0.0938-2.3433 2.3708-5.0299 5.0604-2.6865 2.6894-4.9604 4.9773-5.0531 5.084-0.0926 0.10669-0.24151 0.28483-0.33108 0.39605-0.0894 0.11106-0.22615 0.28775-0.30391 0.39233-0.0778 0.10459-0.21565 0.30116-0.30665 0.43665-0.0908 0.13562-0.23488 0.36276-0.32008 0.50484-0.085 0.14226-0.20369 0.34806-0.2635 0.45732-0.0598 0.10944-0.17265 0.33121-0.25088 0.49304-0.0781 0.16182-0.18365 0.39184-0.2344 0.51116-0.0508 0.1193-0.12803 0.31037-0.17168 0.42452-0.0437 0.11429-0.11235 0.30406-0.15276 0.42175-0.0403 0.11769-0.10524 0.32299-0.14436 0.45636-0.0391 0.13336-0.1012 0.36244-0.13789 0.50921-0.0367 0.14662-0.0949 0.40849-0.12916 0.58195-0.0344 0.1733-0.0807 0.44246-0.10282 0.59812-0.0223 0.15551-0.0517 0.39556-0.0655 0.53346-0.0137 0.13789-0.0323 0.37053-0.0414 0.5173-0.009 0.14662-0.0163 0.44859-0.0163 0.67086 0.00016 0.22228 0.007 0.52779 0.0163 0.67895 0.009 0.15114 0.0275 0.38747 0.0412 0.52537 0.0139 0.1379 0.0433 0.3778 0.0655 0.53346 0.0222 0.15551 0.066 0.41385 0.0973 0.57388 0.0314 0.16003 0.075 0.36726 0.097 0.46071 0.022 0.0933 0.0731 0.28952 0.11316 0.43597 0.0402 0.1463 0.11348 0.39007 0.16262 0.54154 0.0491 0.15131 0.13676 0.39896 0.19463 0.55012 0.0579 0.15115 0.15939 0.39847 0.22551 0.54963 0.0663 0.15114 0.20223 0.43484 0.30246 0.63045 0.10023 0.1956 0.2462 0.46475 0.32459 0.59812 0.0782 0.13336 0.2247 0.36794 0.32526 0.52116 0.10054 0.15325 0.27643 0.40431 0.39073 0.55771 0.11445 0.15341 0.27368 0.35904 0.35401 0.45684 0.0802 0.0978 0.21662 0.25784 0.3031 0.35564 0.0865 0.0978 0.28581 0.30811 0.44292 0.46735 0.15729 0.15906 0.38765 0.38166 0.51212 0.49432 0.12447 0.11284 0.3136 0.27676 0.4203 0.36436 0.10669 0.0876 0.31959 0.25267 0.47301 0.36713 0.15341 0.11429 0.40446 0.29001 0.55771 0.39055 0.15325 0.10055 0.3878 0.24701 0.52116 0.32526 0.13337 0.0784 0.40251 0.22438 0.59812 0.32444 0.1956 0.10007 0.45749 0.22697 0.58196 0.28193 0.12447 0.0548 0.33188 0.14193 0.46071 0.1935 0.129 0.0514 0.36372 0.13773 0.52166 0.19188 0.1581 0.054 0.42725 0.13822 0.59812 0.18704 0.17103 0.0488 0.39088 0.10782 0.48868 0.13094 0.0978 0.0231 0.27966 0.0629 0.40414 0.0884 0.12447 0.0257 0.3136 0.0613 0.4203 0.0792 0.10669 0.0179 0.30682 0.0474 0.44455 0.0652 0.13789 0.0179 0.38151 0.0451 0.54154 0.0605 0.22244 0.0213 0.45472 0.0281 0.98609 0.0288 0.44405 0.00029 0.78565-0.007 0.94568-0.0207 0.13789-0.0116 0.3925-0.0391 0.56579-0.0608 0.17345-0.0217 0.4426-0.0614 0.59812-0.0881 0.15567-0.0268 0.39928-0.0748 0.54154-0.10686 0.14225-0.0318 0.38652-0.093 0.54282-0.13562 0.15632-0.0427 0.41094-0.11898 0.56579-0.16974 0.15487-0.0508 0.38393-0.13078 0.50921-0.17798 0.12512-0.0472 0.35791-0.14145 0.51729-0.20967 0.15923-0.068 0.46153-0.2108 0.67151-0.31717 0.20999-0.10637 0.51907-0.27514 0.68703-0.37521 0.1678-0.10006 0.39623-0.24264 0.50726-0.317 0.11122-0.0744 0.28936-0.19754 0.39605-0.27368 0.1067-0.0761 0.31764-0.23763 0.4688-0.35872 0.15115-0.12124 0.38038-0.3136 0.50921-0.42757 0.129-0.11381 3.0243-2.9956 6.4339-6.4037l6.1996-6.1966 1.7881 1.7882 1.7882 1.7882 0.0112-4.9203c0.006-2.7063 0.009-5.2113 0.006-5.5672l-0.005-0.64661-0.0687 0.00081c-0.0378 0.00032-2.5438 0.002-5.5689 0.004l-5.5003 0.003 1.8429 1.8428 1.8429 1.843-6.1833 6.1806c-4.1539 4.1521-6.2469 6.2333-6.3772 6.3412-0.10669 0.0881-0.27028 0.21597-0.36372 0.28387-0.0933 0.0679-0.24975 0.17377-0.34756 0.23536-0.0978 0.0614-0.25832 0.15632-0.35691 0.2108-0.0985 0.0543-0.27304 0.14193-0.38797 0.19447-0.11478 0.0525-0.2753 0.12173-0.3566 0.15374-0.0812 0.0322-0.23763 0.0881-0.34756 0.12447-0.10992 0.0364-0.27982 0.0868-0.37762 0.11219-0.0978 0.0255-0.27239 0.0655-0.38797 0.0887-0.11558 0.0234-0.32653 0.0585-0.4688 0.0778-0.22163 0.0302-0.33607 0.0354-0.80018 0.0359-0.35064 0.00029-0.60135-0.007-0.71128-0.0205-0.0933-0.0116-0.26059-0.0359-0.37181-0.0542-0.11105-0.0181-0.27917-0.0503-0.37343-0.0714-0.0941-0.0212-0.26091-0.0643-0.37053-0.096-0.1096-0.0315-0.28321-0.087-0.3857-0.12334-0.10265-0.0362-0.26317-0.0986-0.35692-0.13838-0.0938-0.0399-0.26495-0.11978-0.38052-0.17765-0.11559-0.0577-0.27918-0.14549-0.36373-0.19496-0.0844-0.0495-0.22987-0.1408-0.3233-0.20304-0.0933-0.0622-0.2226-0.15211-0.2871-0.1998-0.0645-0.0475-0.18817-0.14597-0.27482-0.21856-0.0866-0.0726-0.22809-0.19673-0.31426-0.2761-0.0863-0.0794-0.23666-0.23262-0.33398-0.34076-0.0973-0.10798-0.22923-0.26171-0.29307-0.34156-0.0639-0.0799-0.17265-0.22535-0.242-0.32331-0.0692-0.098-0.18137-0.27061-0.24927-0.38376-0.0679-0.11299-0.17733-0.31313-0.24312-0.44454-0.0658-0.13143-0.15616-0.32767-0.20078-0.4363-0.0446-0.10846-0.11752-0.30859-0.16198-0.44455-0.0444-0.13595-0.0999-0.32249-0.12318-0.41463-0.0231-0.0921-0.0567-0.23763-0.0744-0.32331-0.0178-0.0857-0.0461-0.2504-0.063-0.36599-0.017-0.11558-0.0394-0.31909-0.0501-0.45231-0.0125-0.15519-0.0159-0.39024-0.01-0.6547 0.005-0.2268 0.0173-0.47446 0.0267-0.54994 0.009-0.0757 0.0356-0.25008 0.0584-0.38797 0.0229-0.13789 0.0703-0.36468 0.1054-0.50404 0.0349-0.13934 0.10022-0.36131 0.14516-0.49304 0.0448-0.13175 0.11785-0.3259 0.16214-0.43161 0.0445-0.10556 0.13078-0.29194 0.19205-0.41417 0.0613-0.12221 0.14937-0.28677 0.19576-0.36567 0.0464-0.079 0.13547-0.22001 0.19771-0.31328 0.0622-0.0934 0.16796-0.24216 0.23472-0.33057 0.0668-0.0884 0.18671-0.23764 0.26624-0.3314 0.0797-0.0937 2.3504-2.3784 5.0462-5.0767 3.3721-3.3756 4.9639-4.9799 5.1017-5.1418 0.11041-0.12965 0.28499-0.34415 0.38814-0.47688 0.1033-0.13272 0.26382-0.35032 0.35709-0.48368 0.0931-0.13337 0.2205-0.3225 0.2829-0.4203 0.0626-0.0978 0.17782-0.28694 0.25638-0.4203 0.0784-0.13337 0.23068-0.41708 0.33834-0.63046 0.1075-0.21338 0.25105-0.51892 0.31878-0.67894 0.0679-0.16004 0.17038-0.41836 0.22793-0.57388 0.0575-0.15567 0.13773-0.38846 0.17814-0.51729 0.0404-0.129 0.10265-0.34125 0.13822-0.47188 0.0356-0.13062 0.0942-0.36776 0.13029-0.527 0.0359-0.1594 0.0905-0.4381 0.12124-0.61929 0.0307-0.18138 0.0705-0.45717 0.0883-0.61266 0.0179-0.15567 0.0419-0.38846 0.0534-0.51729 0.0129-0.14598 0.0205-0.48738 0.0202-0.90527-0.00058-0.50566-0.007-0.74456-0.0284-0.96992-0.0154-0.16456-0.0423-0.4119-0.0598-0.54962-0.0176-0.1379-0.0501-0.35791-0.0724-0.48901s-0.0592-0.32752-0.082-0.43647c-0.0226-0.10895-0.0778-0.34255-0.12237-0.51906-0.0446-0.17669-0.12464-0.45976-0.17782-0.62917-0.0532-0.16958-0.14291-0.43243-0.19965-0.58423-0.0566-0.15179-0.14759-0.38166-0.20223-0.51049-0.0546-0.129-0.17103-0.38134-0.25848-0.56093-0.0875-0.17976-0.21888-0.43437-0.29211-0.56579-0.0734-0.13159-0.19867-0.3448-0.27837-0.47365-0.0799-0.129-0.20352-0.32041-0.27465-0.42563-0.0713-0.10523-0.21451-0.30519-0.31831-0.44454-0.10378-0.13935-0.25444-0.33334-0.33462-0.43115-0.0802-0.0978-0.23698-0.27966-0.34819-0.40414-0.11138-0.12447-0.32154-0.34546-0.46735-0.49109-0.14564-0.14566-0.3668-0.35596-0.49127-0.46717-0.12447-0.11138-0.34997-0.30148-0.50113-0.42272-0.15114-0.12107-0.36209-0.28257-0.46879-0.35872-0.10669-0.0761-0.28387-0.19851-0.39379-0.2719-0.10992-0.0734-0.33898-0.21662-0.50921-0.31845-0.17022-0.10201-0.50209-0.28177-0.73779-0.39946-0.23553-0.11784-0.53378-0.25881-0.66279-0.31328-0.12883-0.0543-0.33979-0.1387-0.46879-0.18735-0.12884-0.0487-0.3343-0.12173-0.45636-0.16246-0.1222-0.0407-0.32217-0.10282-0.44455-0.13806-0.12253-0.0352-0.31037-0.0862-0.41756-0.11299-0.10734-0.027-0.2981-0.0711-0.42417-0.098-0.12593-0.0268-0.35837-0.0705-0.51633-0.0968-0.15794-0.0265-0.3744-0.0588-0.4811-0.0721-0.10669-0.0133-0.274-0.0317-0.37181-0.0412-0.0978-0.009-0.28693-0.0242-0.4203-0.0328-0.13336-0.009-0.47525-0.0149-0.75977-0.0137z"/>
 </g>

</svg>